<?xml version="1.0" encoding="utf-8"?>
<!-- Generator: Adobe Illustrator 24.0.3, SVG Export Plug-In . SVG Version: 6.00 Build 0)  -->
<svg version="1.1" id="Capa_1" xmlns="http://www.w3.org/2000/svg" xmlns:xlink="http://www.w3.org/1999/xlink" x="0px" y="0px"
	 width="100px" height="37px" viewBox="0 0 100 37" style="enable-background:new 0 0 100 37;" xml:space="preserve">
<style type="text/css">
	.st0{fill:#243366;}
	.st1{fill:#CC3B30;}
</style>
<g>
	<path class="st0" d="M43.255,20.205c0.731-6.227,5.912-11.275,11.574-11.275c2.473,0,4.629,0.964,6.213,2.569l0.273-2.031h7.619
		L66.063,30.8h-7.618l0.218-1.623c-1.893,1.445-4.145,2.303-6.48,2.303C46.522,31.479,42.525,26.431,43.255,20.205 M51.017,20.185
		c-0.319,2.447,1.428,4.431,3.899,4.431c2.471,0,4.733-1.984,5.053-4.431c0.319-2.447-1.426-4.432-3.899-4.432
		C53.599,15.753,51.336,17.738,51.017,20.185 M73.258,3.443h7.514L80.048,9.68h4.321l-0.845,6.564h-4.236L77.601,30.8h-7.833
		l1.858-14.555h-2.489L69.98,9.68h2.483L73.258,3.443z M25.656,30.8h7.929l1.17-9.797c1.596-7.62,8.355-4.129,8.355-4.129
		l1.053-7.503c-7.301,0-8.46,3.278-8.46,3.278l0.319-3.182h-7.727L25.656,30.8z M11.345,6.618l-0.823,7.194
		c0,0,6.218,1.284,6.887-3.186C18.159,5.613,11.345,6.618,11.345,6.618 M0.013,30.8L3.749,0.088h13.268c0,0,8.992-0.722,8.992,9.53
		c0,10.251-9.951,11.071-9.951,11.071H9.683L8.445,30.8H0.013z"/>
	<g>
		<polygon class="st0" points="1.485,33.096 0.563,33.096 0,36.642 2.028,36.642 2.15,35.861 1.045,35.861 		"/>
		<path class="st0" d="M4.985,32.978c-1.021,0-2.081,0.753-2.252,1.824c-0.181,1.148,0.514,1.957,1.652,1.957
			c1.136,0,2.088-0.809,2.271-1.957C6.826,33.731,6.005,32.978,4.985,32.978z M5.697,34.808c-0.096,0.61-0.619,1.056-1.17,1.056
			c-0.55,0-0.93-0.447-0.836-1.056c0.079-0.49,0.602-0.936,1.151-0.936C5.392,33.872,5.773,34.318,5.697,34.808z"/>
		<path class="st0" d="M8.877,33.773c0.225,0,0.426,0.095,0.574,0.236l0.478-0.716c-0.286-0.178-0.704-0.291-1.063-0.291
			c-0.71,0-1.295,0.471-1.411,1.19c-0.109,0.686,0.249,0.839,0.801,1.001c0.188,0.058,0.536,0.147,0.495,0.405
			c-0.039,0.25-0.287,0.357-0.503,0.357c-0.315,0-0.562-0.165-0.761-0.367l-0.512,0.744c0.321,0.253,0.735,0.402,1.182,0.402
			c0.357,0,0.743-0.097,1.058-0.332c0.321-0.241,0.461-0.602,0.519-0.955c0.088-0.574-0.252-0.824-0.722-0.97l-0.223-0.07
			c-0.153-0.051-0.39-0.131-0.355-0.338C8.466,33.872,8.708,33.773,8.877,33.773z"/>
		<polygon class="st0" points="14.462,34.99 14.043,33.096 13.136,33.096 11.974,36.642 12.891,36.642 13.508,34.602 13.518,34.602 
			14.01,36.642 14.375,36.642 15.549,34.602 15.559,34.602 15.494,36.642 16.416,36.642 16.442,33.096 15.524,33.096 		"/>
		<path class="st0" d="M18.707,33.096l-1.926,3.546h0.978l0.345-0.616h1.268l0.133,0.616h0.984l-0.774-3.546H18.707z M18.466,35.32
			l0.56-1.128h0.009l0.197,1.128H18.466z"/>
		<polygon class="st0" points="21.067,36.642 23.084,36.642 23.209,35.861 22.113,35.861 22.208,35.25 23.248,35.25 23.372,34.469 
			22.334,34.469 22.426,33.876 23.523,33.876 23.646,33.096 21.629,33.096 		"/>
		<path class="st0" d="M25.736,33.773c0.226,0,0.427,0.095,0.574,0.236l0.481-0.716c-0.287-0.178-0.707-0.291-1.064-0.291
			c-0.709,0-1.297,0.471-1.413,1.19c-0.107,0.686,0.25,0.839,0.803,1.001c0.187,0.058,0.536,0.147,0.494,0.405
			c-0.038,0.25-0.287,0.357-0.503,0.357c-0.313,0-0.561-0.165-0.758-0.367l-0.514,0.744c0.322,0.253,0.735,0.402,1.182,0.402
			c0.357,0,0.745-0.097,1.059-0.332c0.322-0.241,0.463-0.602,0.52-0.955c0.091-0.574-0.252-0.824-0.723-0.97l-0.221-0.07
			c-0.152-0.051-0.388-0.131-0.357-0.338C25.326,33.872,25.567,33.773,25.736,33.773z"/>
		<polygon class="st0" points="27.303,33.876 28.063,33.876 27.628,36.642 28.55,36.642 28.986,33.876 29.748,33.876 29.87,33.096 
			27.426,33.096 		"/>
		<path class="st0" d="M31.878,33.096h-1.379l-0.562,3.546h0.922l0.215-1.364h0.011l0.653,1.364h1.148l-0.886-1.455
			c0.517-0.088,0.858-0.512,0.934-1.001C33.056,33.429,32.579,33.096,31.878,33.096z M31.969,34.243
			c-0.063,0.385-0.41,0.442-0.71,0.442h-0.09l0.141-0.883h0.089C31.699,33.802,32.03,33.858,31.969,34.243z"/>
		<path class="st0" d="M35.792,32.978c-1.02,0-2.08,0.753-2.25,1.824c-0.182,1.148,0.514,1.957,1.653,1.957
			c1.136,0,2.087-0.809,2.269-1.957C37.633,33.731,36.812,32.978,35.792,32.978z M36.504,34.808c-0.096,0.61-0.62,1.056-1.171,1.056
			c-0.548,0-0.928-0.447-0.833-1.056c0.079-0.49,0.602-0.936,1.151-0.936C36.2,33.872,36.581,34.318,36.504,34.808z"/>
		<path class="st0" d="M39.684,33.773c0.227,0,0.428,0.095,0.575,0.236l0.48-0.716c-0.287-0.178-0.707-0.291-1.065-0.291
			c-0.708,0-1.297,0.471-1.41,1.19c-0.108,0.686,0.248,0.839,0.801,1.001c0.188,0.058,0.538,0.147,0.495,0.405
			c-0.039,0.25-0.288,0.357-0.502,0.357c-0.315,0-0.564-0.165-0.762-0.367l-0.512,0.744c0.322,0.253,0.735,0.402,1.183,0.402
			c0.357,0,0.744-0.097,1.058-0.332c0.321-0.241,0.464-0.602,0.518-0.955c0.092-0.574-0.251-0.824-0.721-0.97l-0.223-0.07
			c-0.153-0.051-0.388-0.131-0.357-0.338C39.274,33.872,39.516,33.773,39.684,33.773z"/>
		<path class="st0" d="M44.862,33.096h-1.309l-0.559,3.546h1.306c0.984,0,1.924-0.777,2.082-1.774
			C46.539,33.872,45.848,33.096,44.862,33.096z M45.422,34.868c-0.109,0.691-0.628,0.993-1.178,0.993h-0.205l0.313-1.985h0.214
			C45.16,33.876,45.522,34.235,45.422,34.868z"/>
		<polygon class="st0" points="46.823,36.642 48.839,36.642 48.964,35.861 47.867,35.861 47.963,35.25 49.005,35.25 49.126,34.469 
			48.088,34.469 48.182,33.876 49.277,33.876 49.401,33.096 47.385,33.096 		"/>
		<polygon class="st0" points="51.186,33.096 50.263,33.096 49.703,36.642 51.729,36.642 51.854,35.861 50.748,35.861 		"/>
		<polygon class="st0" points="57.068,35.264 57.058,35.264 55.714,33.096 54.791,33.096 54.229,36.642 55.151,36.642 
			55.495,34.469 55.505,34.469 56.849,36.642 57.771,36.642 58.333,33.096 57.41,33.096 		"/>
		<path class="st0" d="M61.029,32.978c-1.02,0-2.08,0.753-2.251,1.824c-0.18,1.148,0.515,1.957,1.652,1.957
			c1.139,0,2.09-0.809,2.271-1.957C62.872,33.731,62.049,32.978,61.029,32.978z M61.742,34.808c-0.097,0.61-0.62,1.056-1.168,1.056
			c-0.553,0-0.932-0.447-0.836-1.056c0.076-0.49,0.599-0.936,1.148-0.936C61.437,33.872,61.819,34.318,61.742,34.808z"/>
		<path class="st0" d="M65.072,33.096h-1.378l-0.561,3.546h0.921l0.215-1.364h0.011l0.652,1.364h1.149l-0.884-1.455
			c0.517-0.088,0.856-0.512,0.934-1.001C66.251,33.429,65.773,33.096,65.072,33.096z M65.163,34.243
			c-0.06,0.385-0.409,0.442-0.712,0.442h-0.088l0.139-0.883h0.091C64.895,33.802,65.223,33.858,65.163,34.243z"/>
		<polygon class="st0" points="66.79,33.876 67.551,33.876 67.113,36.642 68.032,36.642 68.472,33.876 69.235,33.876 69.358,33.096 
			66.913,33.096 		"/>
		<polygon class="st0" points="71.88,33.876 72.002,33.096 69.986,33.096 69.423,36.642 71.442,36.642 71.565,35.861 70.469,35.861 
			70.565,35.25 71.607,35.25 71.73,34.469 70.689,34.469 70.783,33.876 		"/>
	</g>
	<g>
		<polygon class="st0" points="62.759,3.291 63.189,3.291 64.256,2.295 63.379,2.295 		"/>
		<polygon class="st0" points="62.018,7.841 63.147,7.841 63.803,3.698 62.674,3.698 		"/>
		<polygon class="st0" points="28.486,7.858 29.6,7.858 29.856,6.232 31.064,6.232 31.209,5.332 29.996,5.332 30.107,4.646 
			31.402,4.646 31.553,3.689 29.144,3.689 		"/>
		<polygon class="st0" points="32.394,7.858 34.798,7.858 34.943,6.929 33.653,6.929 33.764,6.237 34.966,6.237 35.105,5.332 
			33.909,5.332 34.014,4.651 35.304,4.651 35.455,3.689 33.052,3.689 		"/>
		<path class="st0" d="M39.904,4.907c0-0.25-0.054-0.466-0.162-0.645c-0.108-0.18-0.268-0.319-0.478-0.417
			c-0.119-0.057-0.261-0.097-0.424-0.121c-0.163-0.024-0.412-0.035-0.746-0.035h-1.111l-0.658,4.169h1.108l0.25-1.592l0.806,1.592
			h1.27l-1.014-1.646c0.361-0.059,0.644-0.205,0.85-0.437C39.801,5.542,39.904,5.253,39.904,4.907z M38.645,5.443
			c-0.118,0.101-0.287,0.151-0.507,0.151h-0.35l0.174-1.096h0.165c0.243,0,0.42,0.04,0.53,0.121c0.11,0.081,0.165,0.21,0.165,0.389
			C38.822,5.197,38.763,5.342,38.645,5.443z"/>
		<path class="st0" d="M44.518,4.907c0-0.25-0.054-0.466-0.162-0.645c-0.108-0.18-0.268-0.319-0.478-0.417
			c-0.119-0.057-0.261-0.097-0.424-0.121C43.29,3.7,43.041,3.689,42.707,3.689h-1.111l-0.658,4.169h1.108l0.25-1.592l0.806,1.592
			h1.27l-1.014-1.646c0.361-0.059,0.644-0.205,0.85-0.437C44.415,5.542,44.518,5.253,44.518,4.907z M43.259,5.443
			c-0.118,0.101-0.287,0.151-0.507,0.151h-0.35l0.174-1.096h0.165c0.243,0,0.42,0.04,0.529,0.121c0.11,0.081,0.165,0.21,0.165,0.389
			C43.436,5.197,43.377,5.342,43.259,5.443z"/>
		<polygon class="st0" points="45.552,7.858 47.956,7.858 48.101,6.929 46.811,6.929 46.922,6.237 48.124,6.237 48.264,5.332 
			47.067,5.332 47.173,4.651 48.463,4.651 48.614,3.689 46.21,3.689 		"/>
		<polygon class="st0" points="49.634,4.657 50.568,4.657 50.061,7.858 51.18,7.858 51.687,4.657 52.578,4.657 52.738,3.689 
			49.793,3.689 		"/>
		<polygon class="st0" points="53.419,7.858 55.823,7.858 55.968,6.929 54.678,6.929 54.789,6.237 55.991,6.237 56.13,5.332 
			54.934,5.332 55.039,4.651 56.329,4.651 56.48,3.689 54.077,3.689 		"/>
		<path class="st0" d="M60.929,4.907c0-0.25-0.054-0.466-0.162-0.645c-0.108-0.18-0.268-0.319-0.478-0.417
			c-0.119-0.057-0.261-0.097-0.424-0.121c-0.163-0.024-0.412-0.035-0.746-0.035h-1.111L57.35,7.858h1.108l0.25-1.592l0.806,1.592
			h1.27L59.77,6.212c0.361-0.059,0.644-0.205,0.85-0.437C60.826,5.542,60.929,5.253,60.929,4.907z M59.67,5.443
			c-0.118,0.101-0.287,0.151-0.507,0.151h-0.35l0.174-1.096h0.165c0.243,0,0.42,0.04,0.53,0.121c0.11,0.081,0.165,0.21,0.165,0.389
			C59.847,5.197,59.788,5.342,59.67,5.443z"/>
		<path class="st0" d="M67.813,3.689h-1.395L64.33,7.858h1.213l0.398-0.786H67.4l0.168,0.786h1.131L67.813,3.689z M66.361,6.143
			l0.441-0.954c0.019-0.042,0.045-0.106,0.079-0.192c0.033-0.086,0.07-0.187,0.11-0.3c0.002,0.066,0.007,0.138,0.017,0.214
			c0.01,0.076,0.024,0.162,0.043,0.259l0.191,0.974H66.361z"/>
	</g>
	<path class="st1" d="M79.331,28.862c0-0.524,0.185-0.973,0.554-1.346c0.37-0.372,0.82-0.559,1.35-0.559
		c0.537,0,0.99,0.183,1.36,0.55c0.369,0.366,0.554,0.818,0.554,1.355c0,0.543-0.183,1-0.55,1.369
		c-0.367,0.37-0.815,0.554-1.346,0.554c-0.531,0-0.984-0.19-1.36-0.569C79.519,29.838,79.331,29.387,79.331,28.862"/>
	<path class="st1" d="M93.246,24.361c-0.348-0.373-0.7-0.651-1.057-0.834c-0.357-0.183-0.731-0.275-1.123-0.275
		c-0.663,0-1.219,0.258-1.668,0.772c-0.449,0.515-0.673,1.151-0.673,1.909c0,0.632,0.174,1.133,0.521,1.502
		c0.347,0.369,0.818,0.554,1.412,0.554c0.379,0,0.744-0.066,1.095-0.199c0.351-0.133,0.7-0.332,1.047-0.597l-0.512,3.146
		c-0.448,0.158-0.883,0.275-1.303,0.351c-0.42,0.076-0.832,0.114-1.237,0.114c-1.352,0-2.446-0.437-3.283-1.313
		c-0.837-0.875-1.256-2.017-1.256-3.425c0-1.649,0.518-2.987,1.554-4.013c1.036-1.026,2.394-1.54,4.075-1.54
		c0.537,0,1.048,0.078,1.535,0.232c0.486,0.155,0.932,0.384,1.336,0.687L93.246,24.361z"/>
	<polygon class="st1" points="96.598,16.049 100,16.049 97.65,30.737 94.257,30.737 	"/>
	<path class="st1" d="M96.973,35.225c0,0-0.133,0.416-0.734,0.664c0,0-0.564,0.247-1.182,0.258
		c-0.618,0.011-0.707-0.005-1.093-0.069c0,0-0.638-0.111-1.098-0.253l0.544-1.071c0,0,0.682,0.437,1.305,0.395
		c0,0,0.243-0.011,0.374-0.084c0,0,0.18-0.184-0.063-0.259c0,0-0.159-0.074-0.481-0.074c-0.025,0-0.665-0.064-1.093-0.322
		c-0.281-0.169-0.419-0.478-0.407-0.717c0,0-0.053-0.812,1.008-1.155c0,0,0.707-0.273,1.457-0.195c0,0,0.882,0.043,1.378,0.312
		l-0.522,0.975c0,0-0.597-0.279-0.867-0.279c-0.036,0-0.569-0.038-0.58,0.153c0,0-0.079,0.159,0.195,0.179
		c0,0,0.861,0.089,1.014,0.174c0,0,0.576,0.147,0.792,0.469C96.921,34.328,97.227,34.745,96.973,35.225 M91.86,36.129h-1.898v-2.49
		h-1.03v-1.223h3.959v1.223H91.86V36.129z M87.549,36.129l-0.276-2.054l-0.837,2.054h-1.112l-0.813-2.042l-0.274,2.042h-1.849
		l0.824-3.713h1.963l0.698,1.934l0.738-1.934h1.874l0.888,3.713H87.549z M74.272,36.642h23.432V31.84H74.272V36.642z"/>
</g>
</svg>
